Coordinates
version=1
nRows=19
nColumns=24
inDegrees=yes

Units are S.I. units (second, meters, Newtons, ...)
Angles are in degrees.

endheader
time	pelvis_tilt	pelvis_list	pelvis_rotation	pelvis_tx	pelvis_ty	pelvis_tz	hip_flexion_r	hip_adduction_r	hip_rotation_r	knee_angle_r	ankle_angle_r	subtalar_angle_r	mtp_angle_r	hip_flexion_l	hip_adduction_l	hip_rotation_l	knee_angle_l	ankle_angle_l	subtalar_angle_l	mtp_angle_l	lumbar_extension	lumbar_bending	lumbar_rotation
      4.47000000	     19.25524213	      2.22485499	     10.27868285	     -0.46712664	      0.79901121	     -0.16369747	      5.92359449	     -0.99513883	      3.00410748	     -4.85153490	      8.45892504	     -1.80587512	      0.00000000	    -42.21241432	     -2.37210804	     15.38201938	     -4.35052211	     18.81595912	     -4.66844302	      0.00000000	    -35.84942295	      3.76604622	    -16.01161220
      4.48000000	     19.75392557	      1.47894849	     10.34639988	     -0.45156015	      0.79821639	     -0.16195366	      5.91420905	      0.20818277	      2.64675310	     -7.39539181	      7.86963639	     -3.53641034	      0.00000000	    -43.46267842	     -3.41280621	     14.71745253	     -4.92600653	     17.70584856	     -4.24936393	      0.00000000	    -35.74309413	      4.43839781	    -15.28165685
      4.49000000	     20.13650285	      0.71566927	     10.32480896	     -0.43566878	      0.79743337	     -0.16004127	      6.02584966	      1.44134220	      2.40139740	    -10.02808731	      6.82570438	     -5.31725583	      0.00000000	    -44.51796014	     -4.35600522	     13.95496778	     -5.67153155	     16.42218648	     -3.69692901	      0.00000000	    -35.43590315	      5.05737056	    -14.52848929
      4.50000000	     20.46056637	     -0.02157730	     10.22478791	     -0.41962431	      0.79672484	     -0.15805745	      6.20237998	      2.64312576	      2.13041997	    -12.71007919	      5.65346996	     -6.76557700	      0.00000000	    -45.39310880	     -5.16057443	     13.16501744	     -6.65464044	     14.95809666	     -3.13476781	      0.00000000	    -35.04707715	      5.62341589	    -13.77726040
      4.51000000	     20.74243655	     -0.71357539	     10.06072894	     -0.40351382	      0.79614893	     -0.15608332	      6.40596492	      3.77681785	      1.83678351	    -15.37891422	      4.59024849	     -7.72298275	      0.00000000	    -46.06108926	     -5.81511360	     12.37015345	     -7.93287377	     13.31362255	     -2.55587640	      0.00000000	    -34.61060527	      6.14409117	    -13.07518952
      4.52000000	     20.95976217	     -1.31760683	      9.89558174	     -0.38743478	      0.79572151	     -0.15430742	      6.64794616	      4.75587666	      1.37754885	    -18.02572600	      3.98805341	     -7.96359630	      0.00000000	    -46.45544977	     -6.31482723	     11.79069171	     -9.54962171	     11.47159086	     -2.13238893	      0.00000000	    -34.12188094	      6.63109573	    -12.50698291
      4.53000000	     21.22347793	     -1.83831546	      9.61431948	     -0.37146896	      0.79550967	     -0.15245661	      6.75714115	      5.66143498	      1.17241697	    -20.55032258	      3.76737414	     -7.94249543	      0.00000000	    -46.62979400	     -6.62019892	     10.91147803	    -11.60613567	      9.52927542	     -1.45668448	      0.00000000	    -33.73695957	      7.00676040	    -11.94165072
      4.54000000	     21.47748942	     -2.22879870	      9.34259647	     -0.35575041	      0.79549172	     -0.15077957	      6.77011090	      6.39318758	      0.94451520	    -22.93725391	      4.10167376	     -7.56887619	      0.00000000	    -46.45447522	     -6.77789019	      9.98187989	    -14.17199934	      7.54464649	     -0.70618337	      0.00000000	    -33.41033610	      7.31442251	    -11.54286704
      4.55000000	     21.70893093	     -2.51458195	      9.08483960	     -0.34031542	      0.79562318	     -0.14918966	      6.67069444	      6.99146229	      0.74892505	    -25.13774741	      4.94493362	     -7.01405372	      0.00000000	    -45.90058196	     -6.84176336	      8.95547581	    -17.23173367	      5.51230956	      0.02459199	      0.00000000	    -33.13582926	      7.53828105	    -11.25245852
      4.56000000	     21.88437776	     -2.73391765	      8.84540332	     -0.32520870	      0.79584553	     -0.14766058	      6.47212796	      7.49663706	      0.57567864	    -27.09165289	      6.19507960	     -6.40871668	      0.00000000	    -44.92854041	     -6.86816817	      7.83287204	    -20.75268461	      3.45351856	      0.61732295	      0.00000000	    -32.88217167	      7.70786795	    -11.03865256
      4.57000000	     21.97868330	     -2.91152844	      8.66599679	     -0.31046814	      0.79612541	     -0.14619093	      6.19717097	      7.93502463	      0.40188043	    -28.77620981	      7.71025171	     -5.83576164	      0.00000000	    -43.52157494	     -6.92830507	      6.65144867	    -24.66304740	      1.36482166	      0.85528047	      0.00000000	    -32.60997547	      7.85374307	    -10.88277925
      4.58000000	     21.82427917	     -2.96423535	      8.51538316	     -0.29633837	      0.79635203	     -0.14478120	      6.05961939	      8.18011680	      0.16100531	    -30.22027963	      9.32566972	     -5.36450639	      0.00000000	    -41.48947578	     -6.90374252	      5.63938904	    -28.94905559	     -0.69963823	      0.55126003	      0.00000000	    -32.21400455	      7.86031244	    -10.72132657
      4.59000000	     21.73630563	     -3.08069898	      8.52918364	     -0.28257434	      0.79673289	     -0.14342471	      5.66422510	      8.51685061	     -0.09854449	    -31.27213500	     10.97379382	     -5.02835169	      0.00000000	    -39.28991470	     -7.10933423	      4.65727833	    -33.35675156	     -2.64787596	     -0.23086787	      0.00000000	    -31.92703185	      7.97684998	    -10.69239584
      4.60000000	     21.59262112	     -3.21849868	      8.64317345	     -0.26927099	      0.79717011	     -0.14210038	      5.20304736	      8.87320252	     -0.40112250	    -32.02527347	     12.55223135	     -4.79229308	      0.00000000	    -36.83526366	     -7.42373682	      3.84285168	    -37.81142213	     -4.29708740	     -1.50281735	      0.00000000	    -31.65068305	      8.12276575	    -10.65260262
      4.61000000	     21.39905388	     -3.37319674	      8.82904068	     -0.25635042	      0.79767832	     -0.14079256	      4.68551600	      9.25040576	     -0.71819467	    -32.50789383	     14.02172296	     -4.63640901	      0.00000000	    -34.20807106	     -7.80795674	      3.20763970	    -42.17956932	     -5.47252271	     -3.14362335	      0.00000000	    -31.36344407	      8.27741470	    -10.57902576
      4.62000000	     21.12665670	     -3.49766411	      9.02680178	     -0.24384875	      0.79827253	     -0.13952281	      4.17846490	      9.58265724	     -1.02990768	    -32.79810874	     15.34920602	     -4.49612154	      0.00000000	    -31.42531927	     -8.13271003	      2.81685368	    -46.38593056	     -6.02981978	     -4.99048402	      0.00000000	    -31.05856974	      8.37403185	    -10.35680825
      4.63000000	     20.85524876	     -3.57235633	      9.20004965	     -0.23165529	      0.79903948	     -0.13820101	      3.58388302	      9.88413390	     -1.23487407	    -32.89717875	     16.52952218	     -4.42741636	      0.00000000	    -28.63831900	     -8.37563963	      2.53924659	    -50.30982619	     -5.91805824	     -6.96598588	      0.00000000	    -30.78550743	      8.36558008	    -10.12331126
      4.64000000	     20.51867287	     -3.55226369	      9.27914134	     -0.21980998	      0.79996567	     -0.13689149	      2.99740729	     10.07736507	     -1.29353250	    -32.87778536	     17.56629168	     -4.36803216	      0.00000000	    -25.80489708	     -8.39595914	      2.42308538	    -53.92086068	     -5.14332003	     -8.88629372	      0.00000000	    -30.50813022	      8.22764660	     -9.72250252
      4.65000000	     20.25665901	     -3.47751981	      9.26934784	     -0.20815201	      0.80120473	     -0.13550283	      2.23834324	     10.24198731	     -1.14838973	    -32.69584205	     18.42927192	     -4.28568631	      0.00000000	    -23.12765505	     -8.29713034	      2.28158853	    -57.10516275	     -3.84225978	    -10.77582081	      0.00000000	    -30.32308865	      7.95807486	     -9.23380325
